PathFileType	4	(X/Y/Z)	Apose_0-50.trc
DataRate	CameraRate	NumFrames	NumMarkers	Units	OrigDataRate	OrigDataStartFrame	OrigNumFrames
30	30	6	22	m	30	10	50
Frame#	Time	Hip			RHip			RKnee			RAnkle			RBigToe			RSmallToe			RHeel			LHip			LKnee			LAnkle			LBigToe			LSmallToe			LHeel			Neck			Head			Nose			RShoulder			RElbow			RWrist			LShoulder			LElbow			LWrist		
		X1	Y1	Z1	X2	Y2	Z2	X3	Y3	Z3	X4	Y4	Z4	X5	Y5	Z5	X6	Y6	Z6	X7	Y7	Z7	X8	Y8	Z8	X9	Y9	Z9	X10	Y10	Z10	X11	Y11	Z11	X12	Y12	Z12	X13	Y13	Z13	X14	Y14	Z14	X15	Y15	Z15	X16	Y16	Z16	X17	Y17	Z17	X18	Y18	Z18	X19	Y19	Z19	X20	Y20	Z20	X21	Y21	Z21	X22	Y22	Z22
11	0.3666666666666666	0.03088849981790012	0.9229761929195924	0.36008815190012317	0.019759802224050983	0.8890644263030922	0.4645314282553642	-4.12955403288867e-05	0.5085989078605564	0.49941288013625784	-0.004300400081746022	0.10999590105238911	0.516876614697406	0.20158574660994522	0.03434798054312883	0.5686855213231206	0.15250180453686057	0.0226002468868567	0.6259356735185999	-0.0352605642277142	0.036562066148738435	0.4980876704841849	0.022846139381899073	0.8910433975357251	0.24632652182253534	0.005650364292034651	0.5113403137255422	0.22688009373262136	0.0034847771969833854	0.11971269879131287	0.2080563810134281	0.21706587267394148	0.04456086792550376	0.19236888078015335	0.16615572308932308	0.03386996426942111	0.12690576234519907	-0.04624530397689097	0.05333840812731189	0.19973826456531857	0.059136769374950604	1.565830600744936	0.35000178807027876	0.29831761865136924	1.758193842964961	0.30915002877068065	0.3209244220118901	1.6062759988495159	0.33515088339370436	0.01796258154038219	1.4941170575792841	0.5335369440576374	0.06282558586945153	1.2345999550102078	0.721314455665242	0.12013863900904002	1.0444378065211262	0.8973734972398657	0.01821198867865709	1.479176161886887	0.15347925176758187	0.015158251531136186	1.2265678747878532	0.005831646862528372	0.05631965569092425	1.0131249006014258	-0.14646448628783712
12	0.4	0.030613548887785808	0.9223942275022861	0.35934461023883296	0.019644119918541023	0.8878947866624055	0.46414379357149943	-0.00041755018640603453	0.5087881470791489	0.49918693398944247	-0.004310787397403123	0.11003754030771462	0.5170462389161673	0.2016323085902277	0.035787209389506656	0.5686222919173424	0.15172362713239337	0.02401403798114276	0.6261191159130125	-0.03478513658479305	0.03696566867860332	0.4978899695736494	0.022610212440455996	0.8889209928403836	0.24619446026367464	0.005471235554900007	0.510766238889784	0.22629383714317564	0.0027164586193187228	0.12081838783901369	0.20782380962495736	0.21684807266285464	0.044481489007402925	0.19243537662373733	0.16601930740356616	0.0336169536967104	0.12707021208401958	-0.046507620620553	0.05239720907199204	0.20074767600953553	0.05784986391482985	1.5666914868428017	0.3498608158417859	0.29318807729793334	1.7568621101609923	0.3129321835063738	0.32016998055163515	1.6054835623879797	0.334999565396365	0.018216285605799357	1.4940023487735203	0.5333899846648311	0.05981279625202891	1.2349663951683223	0.7200155197446013	0.11882575067810171	1.0448675096835867	0.8959923632890087	0.01692670767996905	1.4784347881650064	0.1526984113678116	0.016204505712762576	1.2256365121830177	0.005828122254955204	0.05945093796083506	1.014097679137289	-0.1446497202140548
13	0.4333333333333333	0.030543771723707328	0.9219270579189947	0.3586034392155488	0.019890878651989106	0.8866349797605143	0.46366155213815713	-0.000845465082453262	0.5087724051280126	0.4989076286637264	-0.004694888635979694	0.11061852849584361	0.5171465947904715	0.2014933326978497	0.036523579074328266	0.5684496262413561	0.15102888046785884	0.02530431197518925	0.6265045136546962	-0.034755598222151594	0.03754144101839063	0.49781670886596735	0.022649947823214635	0.8870746181030135	0.24591579906618302	0.0053092529093246976	0.5101813417775886	0.22559900261428695	0.0018480797116405916	0.12196932950580348	0.2074641404337986	0.21663365826218756	0.04450916273106477	0.19245093408902236	0.16590945633365506	0.03339499125789744	0.12717816096787804	-0.04708370516556238	0.05077359969363643	0.20196570758722865	0.05604723301029727	1.5676819545901557	0.34991789489392316	0.2828324717117619	1.754798457583485	0.32137288161520233	0.3190680595220276	1.6048838129302327	0.3346185471495986	0.0183668854285107	1.493874996010559	0.5330596213862461	0.05641128955371153	1.2351322706701262	0.7186061123153556	0.11773650484563188	1.045344083715025	0.8945876055246501	0.015637310000161803	1.4777119824487748	0.15201920658734028	0.01714603956653575	1.2246939228124625	0.005754068403984186	0.06256858250411984	1.0151624830984654	-0.14307196160478702
14	0.4666666666666667	0.03067896199883214	0.9216560663633375	0.3579631147837248	0.020258613413586396	0.8857348507558394	0.46313895264164545	-0.0013219630832487553	0.5085172179493502	0.49854058703945775	-0.005361224399476837	0.11183086131058084	0.5171367602949003	0.20091631989893072	0.036545771562732116	0.5680678382371007	0.15066343454830464	0.026179474807852546	0.6268931928742746	-0.03508266507127358	0.038063449518032824	0.4978942570045363	0.022972590499631306	0.8859643459659854	0.24542944324778446	0.005192169669780599	0.5097942040604467	0.22495703550469787	0.0011277556807548874	0.12294038498538948	0.20698323631325846	0.2164996419382614	0.044728318024774505	0.1923284270875382	0.165863777222135	0.033262752297931596	0.1272206999749479	-0.047957622449138246	0.04871099313970011	0.2031487636058922	0.05420810226778526	1.5684492068489813	0.3499953808642803	0.2714429368830763	1.752880906697803	0.3306724974801928	0.318036547813562	1.6048666369415383	0.3339829165407499	0.018156258277877157	1.4938281311507415	0.5323867672605563	0.05349492869587942	1.235166704715155	0.7172215884559212	0.11688214986112708	1.0457112691024375	0.8933309057526633	0.014730932976399679	1.4771267705012148	0.1515434793437499	0.01811100626948336	1.223805345667143	0.005643602995917599	0.06552149806527585	1.0159657986780146	-0.14210647560428627
15	0.5	0.030987897687462507	0.9216076739919554	0.35750431768627927	0.020569909265529377	0.8854039566646433	0.4626721524425951	-0.0016938050167969556	0.508067124624082	0.4981268793145196	-0.006224484842470494	0.11358832355766985	0.5170200310597188	0.19973349354396572	0.035984000848719916	0.5673383592820066	0.15071482582078924	0.026454572895305672	0.6271078412132634	-0.03565719362939056	0.038341115912133406	0.49812421313308874	0.023595179699907383	0.8856605682058093	0.24480688519353183	0.005194596985418878	0.5097181350715009	0.22449128358639503	0.0006760250067905213	0.12368309116511537	0.20640606302807804	0.21646313103220305	0.045153544903387625	0.19197632892612634	0.16584710947412737	0.0332466200854228	0.12716202989798847	-0.04889360111809552	0.04680797780600627	0.2040055523887378	0.05267179816557254	1.5688160320536013	0.3499741357058563	0.26285797349757445	1.7518386109537762	0.3373284681724033	0.31728636283414735	1.605533500976658	0.3331539079808144	0.017573222072035086	1.493854184668509	0.5314205989758702	0.051543241482701445	1.235106112922765	0.7159389555456563	0.116269310194066	1.0459038299058183	0.8923034070487849	0.014343140465203649	1.4767366191893057	0.1512702932230855	0.01921610002823548	1.223044527456997	0.005472340819547841	0.06813033002552857	1.0162592049816077	-0.1419773855839803
16	0.5333333333333333	0.03142039908703592	0.9217066564993113	0.35723990604545797	0.020774641445388084	0.8854974208711718	0.4623524333003791	-0.0017686061504485115	0.5075503322818451	0.49774703075001664	-0.007188421006292932	0.11556479623041044	0.5168479857763185	0.1980189823717466	0.03515405449623895	0.5661863231630521	0.1509435145730572	0.02635704120826988	0.6271545385742083	-0.03639248485473221	0.03833504377815566	0.49848546790226417	0.02445907359778041	0.8858127040973762	0.24422806644569833	0.005409851292013406	0.5098775747368612	0.2242537051362452	0.0005104042276215556	0.12419439681415569	0.20580006562679812	0.21645916838002413	0.045730677770065085	0.19136744971493674	0.16581099456421072	0.033370603968415145	0.1269273763079511	-0.04971918734028589	0.04544921651656321	0.20448194669801567	0.05158422378390981	1.5688695790020941	0.34980936714368144	0.2591129068334752	1.7519347537257235	0.3394797367882536	0.31686493753865136	1.6067031198649397	0.332249795649394	0.016864195022781716	1.4938565150833003	0.5303848934230795	0.050705715634000684	1.2349640309849772	0.7148900888825356	0.11590364113128263	1.0459679044672303	0.8914770720350581	0.014321823008354948	1.4765835882639864	0.15107804481086315	0.020449323010154112	1.222513269410659	0.0051987291410996415	0.07031782912770652	1.0161200663417183	-0.1426214137979264
